# xmcd CD database file
#
# Track frame offsets:
#	150
#	16056
#	32741
#	44981
#	59216
#	81811
#	97320
#	107631
#	121186
#	138111
#	154451
#	171686
#
# Disc length: 2468 seconds
#
# Revision: 6
# Processed by: cddbd v1.5.2PL0 Copyright (c) Steve Scherf et al.
# Submitted via: CDex 1.50
#
DISCID=af09a20c
DTITLE=Verschiedene - American Hearts - The New Country Generation CD01
DYEAR=2005
DGENRE=Country
TTITLE0=Sad Lookin' Moon (Alabama)
TTITLE1=When She Cries (Restless Heart)
TTITLE2=Jukebox Junkie (Ken Mellons)
TTITLE3=Tennessee Flat Top Box (Rosannah Cash)
TTITLE4=Third Rock From the Sun [Extended Version] (Joe Diffie)
TTITLE5=She's Got a Mind of Her Own (James Bonamy)
TTITLE6=In Your Face (Ty Herndon)
TTITLE7=Limbo (Jill Morris)
TTITLE8=I Got You (Shenandoah)
TTITLE9=Oklahoma Borderline (Vince Gill)
TTITLE10=The River and the Highway (Pam Tillis)
TTITLE11=Daddy's Money (Ricochet)
EXTD=(c)2005 Sony Music Media aG\nupc 5099751961628 (2 CD Box) YEAR: 2005
EXTT0=
EXTT1=
EXTT2=
EXTT3=
EXTT4=
EXTT5=
EXTT6=
EXTT7=
EXTT8=
EXTT9=
EXTT10=
EXTT11=
PLAYORDER=
